<svg xmlns="http://www.w3.org/2000/svg" xmlns:xlink="http://www.w3.org/1999/xlink" version="1.1" x="0px" y="0px" viewBox="0 0 100 125" enable-background="new 0 0 100 100" xml:space="preserve"><path d="M41.003,55.299c-1.455-0.402-2.564-1.449-2.744-2.969l-1.811-15.179c-0.049-0.649-0.044-0.874-0.098-1.838l-3.824-3.405  l1.419,7.765l-7.659-1.908l4.865,6.214l-7.668,1.871l7.195,3.243l-5.92,5.218l7.878-0.471l-2.816,7.371l6.755-4.08l0.933,7.838  l3.712-6.135C41.128,57.624,41.003,55.299,41.003,55.299z"/><circle cx="67.309" cy="12.977" r="7.358"/><path d="M74.4,39.625l-10.203-3.353l1.855-5.281c1.193-3.106-0.121-6.833-2.436-7.829l-1.842-0.708  c-0.93-0.357-1.898-0.446-2.828-0.305c-0.494,0.007-0.999,0.103-1.488,0.31l-15.125,6.388c-1.35,0.57-2.429,1.769-2.543,3.059  c-0.006,0.016-0.044,1.095,0.022,1.648l1.81,15.178c0.18,1.52,1.325,2.676,2.745,2.969l-0.111,0.289  c-0.216,1.216-0.059,2.229,0.328,3.245c1.205,3.163,4.658,6.364,6.258,15.806L47.619,88.83c-0.526,2.906,1.227,5.656,3.916,6.144  c2.688,0.487,5.294-1.472,5.821-4.377c0,0,3.764-18.47,3.762-20.705c0-2.234-2.709-17.141-2.709-17.141l1.503-4.276l1.988-5.663  l10.337,3.397c1.818,0.598,3.776-0.392,4.375-2.21C77.209,42.179,76.217,40.221,74.4,39.625z M46.899,34.444l4.897-2.069  l-3.926,10.216L46.899,34.444z"/><text x="0" y="115" fill="#000000" font-size="5px" font-weight="bold" font-family="'Helvetica Neue', Helvetica, Arial-Unicode, Arial, Sans-serif">Created by The Present Group</text><text x="0" y="120" fill="#000000" font-size="5px" font-weight="bold" font-family="'Helvetica Neue', Helvetica, Arial-Unicode, Arial, Sans-serif">from the Noun Project</text></svg>